# xmcd CD database file
#
# Track frame offsets:
#	150
#	16115
#	30928
#	47935
#	60757
#	75331
#	98176
#	120156
#	135032
#	147376
#	174201
#
# Disc length: 2330 seconds
#
# Revision: 0
# Processed by: cddbd v1.5.1PL0 Copyright (c) Steve Scherf et al.
# Submitted via: CDex 1.51
#
DISCID=6d09180b
DTITLE=Various Artist - Farther Down The Road
DYEAR=2005
DGENRE=Country
TTITLE0=George Strait - Write This Down (Live)
TTITLE1=Steve Azar - I Don't Have To Be Me 'Til Monday
TTITLE2=Tracy Lawrence - Paint Me A Birmingham
TTITLE3=LeeAnn Womack - Time For Me To Go
TTITLE4=Julie Roberts - No Way Out
TTITLE5=Marc Broussard - Home
TTITLE6=James Otto - Long Way Down
TTITLE7=George Canyon - I'll Never Do Better Than You
TTITLE8=Michelle Lynn Poe - Just One Of The Boys
TTITLE9=Emerson Drive - You're Like Coming Home
TTITLE10=Enhanced CD
EXTD=YEAR: 2005
EXTT0=
EXTT1=
EXTT2=
EXTT3=
EXTT4=
EXTT5=
EXTT6=
EXTT7=
EXTT8=
EXTT9=
EXTT10=
PLAYORDER=
